#!OML:ASF X:\für Bonn\!DataBase\2005_08_11_Bastian_Final\c3d\Bastian.ASF
:FULLY-SPECIFIED
:DEGREES
93
root -5.35757 17.133 3.56093 901.67 31.9977 -173.627
lowerback 20.8494 -0.713381 -3.02291
upperback 15.4769 1.40872 2.28475
thorax 5.25771 1.47274 4.05
lowerneck -12.2475 -14.3209 -22.7396
upperneck -12.3637 -14.8723 35.4956
head 3.92174 -6.05303 14.2933
rclavicle 5.1684e-015 1.43125e-014
rhumerus -22.7924 8.86526 -82.7445
rradius 43.7438
rwrist 6.27568
rhand -13.8196 7.77426
rfingers 7.12502
rthumb 12.303 -21.8438
lclavicle 5.1684e-015 1.43125e-014
lhumerus -11.3571 -16.6308 89.7468
lradius 39.8005
lwrist 20.5724
lhand -14.8914 -10.7995
lfingers 7.12502
lthumb 11.2695 18.8778
rfemur -1.55125 -9.27505 27.4017
rtibia 65.2137
rfoot 12.0058 4.31985
rtoes -36.9394
lfemur -23.5337 -5.51569 -14.844
ltibia 43.1868
lfoot -8.36333 -13.4236
ltoes -2.37904
94
root -5.31956 17.1378 3.48167 901.526 32.2153 -173.696
lowerback 20.9107 -0.731127 -3.02493
upperback 15.4947 1.38668 2.24752
thorax 5.25056 1.46453 4.01381
lowerneck -12.3836 -14.2812 -22.5194
upperneck -12.3011 -14.8148 35.4446
head 3.91797 -6.01516 14.2371
rclavicle -9.58142e-014 1.10922e-013
rhumerus -22.6098 8.60033 -82.7321
rradius 42.9597
rwrist 6.41844
rhand -13.8129 7.74292
rfingers 7.12502
rthumb 12.3095 -21.8747
lclavicle -9.58142e-014 1.10922e-013
lhumerus -11.2617 -17.0888 89.8033
lradius 40.7378
lwrist 20.7151
lhand -15.0249 -10.8812
lfingers 7.12502
lthumb 11.1407 18.8031
rfemur -2.75294 -9.30321 27.2113
rtibia 67.0904
rfoot 12.0132 4.0038
rtoes -37.2416
lfemur -23.0307 -5.56842 -14.9789
ltibia 43.1938
lfoot -8.70175 -13.2581
ltoes -1.73614
95
root -5.28221 17.1439 3.4039 901.38 32.4286 -173.733
lowerback 20.9821 -0.760577 -2.99377
upperback 15.5229 1.35799 2.21894
thorax 5.2505 1.45648 3.96965
lowerneck -12.5963 -14.2483 -22.2179
upperneck -12.1969 -14.7704 35.317
head 3.92244 -5.97797 14.1264
rclavicle 1.30602e-013 -3.26007e-014
rhumerus -22.4055 8.31193 -82.7202
rradius 42.1955
rwrist 6.48658
rhand -13.8293 7.76887
rfingers 7.12502
rthumb 12.2937 -21.8497
lclavicle 1.30602e-013 -3.26007e-014
lhumerus -11.1092 -17.5701 89.8398
lradius 41.5976
lwrist 20.7847
lhand -15.0973 -11.0173
lfingers 7.12502
lthumb 11.0709 18.6707
rfemur -3.97282 -9.34159 27.066
rtibia 68.9156
rfoot 11.8055 3.69269
rtoes -37.4053
lfemur -22.511 -5.48014 -15.093
ltibia 43.1908
lfoot -9.01273 -13.2353
ltoes -1.16156
96
root -5.24521 17.1515 3.32566 901.228 32.6779 -173.802
lowerback 21.0415 -0.78237 -2.97998
upperback 15.526 1.32779 2.17861
thorax 5.22766 1.44424 3.92172
lowerneck -12.8282 -14.2045 -21.943
upperneck -12.0278 -14.7235 35.2102
head 3.95344 -5.93615 14.0297
rclavicle 5.725e-014 -9.74045e-014
rhumerus -22.2832 8.0914 -82.7179
rradius 41.4902
rwrist 6.50793
rhand -13.9122 7.75469
rfingers 7.12502
rthumb 12.2137 -21.8687
lclavicle 5.725e-014 -9.74045e-014
lhumerus -10.9781 -17.9885 89.9017
lradius 42.3973
lwrist 20.8001
lhand -15.0892 -11.1056
lfingers 7.12502
lthumb 11.0787 18.582
rfemur -5.23596 -9.39091 26.8738
rtibia 70.6941
rfoot 11.4868 3.44059
rtoes -37.3729
lfemur -21.9875 -5.39382 -15.2408
ltibia 43.1769
lfoot -9.3482 -13.1554
ltoes -0.832047
97
root -5.20938 17.1588 3.24862 901.092 32.9272 -173.842
lowerback 21.0779 -0.819822 -2.92923
upperback 15.5514 1.28841 2.1451
thorax 5.24232 1.43088 3.86344
lowerneck -13.0953 -14.1654 -21.6578
upperneck -11.8803 -14.671 35.102
head 3.98198 -5.88761 13.9308
rclavicle 5.08889e-014 -2.32578e-014
rhumerus -22.2102 7.94101 -82.7022
rradius 40.9616
rwrist 6.43907
rhand -14.0013 7.73522
rfingers 7.12502
rthumb 12.1279 -21.8933
lclavicle 5.08889e-014 -2.32578e-014
lhumerus -10.767 -18.4201 89.9348
lradius 43.1286
lwrist 20.7291
lhand -15.0904 -11.2329
lfingers 7.12502
lthumb 11.0776 18.4547
rfemur -6.50346 -9.41512 26.7185
rtibia 72.3856
rfoot 11.0385 3.18919
rtoes -36.9332
lfemur -21.4672 -5.2831 -15.3625
ltibia 43.1457
lfoot -9.65877 -13.1068
ltoes -0.395659
98
root -5.17445 17.1638 3.17286 900.964 33.1831 -173.875
lowerback 21.1105 -0.846072 -2.87026
upperback 15.5632 1.2609 2.13113
thorax 5.24138 1.42217 3.81909
lowerneck -13.341 -14.1402 -21.4202
upperneck -11.7152 -14.6484 34.9947
head 4.02446 -5.85559 13.8356
rclavicle -6.79844e-014 6.22196e-014
rhumerus -22.2717 7.90378 -82.6635
rradius 40.6872
rwrist 6.13432
rhand -14.0526 7.60593
rfingers 7.12502
rthumb 12.0784 -22.0255
lclavicle -6.79844e-014 6.22196e-014
lhumerus -10.5443 -18.8952 89.9979
lradius 43.7991
lwrist 20.7082
lhand -15.0274 -11.3564
lfingers 7.12502
lthumb 11.1383 18.328
rfemur -7.78702 -9.3562 26.6127
rtibia 74.0018
rfoot 10.4446 2.89189
rtoes -35.9282
lfemur -20.953 -5.20091 -15.4778
ltibia 43.1132
lfoot -9.97429 -13.0182
ltoes -0.180012
